HIERARCHY
ROOT Hips
{
 OFFSET 0.000000 0.000000 0.000000
 CHANNELS 6 Xposition Yposition Zposition Yrotation Xrotation Zrotation
 JOINT Chest
 {
  OFFSET 0.000000 9.585900 0.002600
  CHANNELS 3 Yrotation Xrotation Zrotation
  JOINT Chest2
  {
   OFFSET 0.000000 9.601200 -0.005300
   CHANNELS 3 Yrotation Xrotation Zrotation
   JOINT Chest3
   {
    OFFSET 0.000000 9.561800 0.000000
    CHANNELS 3 Yrotation Xrotation Zrotation
    JOINT Chest4
    {
     OFFSET 0.000000 9.552100 0.000000
     CHANNELS 3 Yrotation Xrotation Zrotation
     JOINT Neck
     {
      OFFSET 0.000000 14.453000 0.000000
      CHANNELS 3 Yrotation Xrotation Zrotation
      JOINT Head
      {
       OFFSET 0.000000 8.936500 -0.011300
       CHANNELS 3 Yrotation Xrotation Zrotation
       End Site
       {
        OFFSET 0.000000 17.073600 -0.006000
       }
      }
     }
     JOINT RightCollar
     {
      OFFSET -2.921100 9.558500 0.000000
      CHANNELS 3 Yrotation Xrotation Zrotation
      JOINT RightShoulder
      {
       OFFSET -13.519700 0.000000 0.000000
       CHANNELS 3 Yrotation Xrotation Zrotation
       JOINT RightElbow
       {
        OFFSET 0.000000 -29.696600 0.000000
        CHANNELS 3 Yrotation Xrotation Zrotation
        JOINT RightWrist
        {
         OFFSET 0.000000 -24.004700 0.000000
         CHANNELS 3 Yrotation Xrotation Zrotation
         End Site
         {
          OFFSET 0.000000 -17.728500 0.000000
         }
        }
       }
      }
     }
     JOINT LeftCollar
     {
      OFFSET 2.921100 9.558500 0.000000
      CHANNELS 3 Yrotation Xrotation Zrotation
      JOINT LeftShoulder
      {
       OFFSET 13.519700 0.000000 0.000000
       CHANNELS 3 Yrotation Xrotation Zrotation
       JOINT LeftElbow
       {
        OFFSET 0.000000 -29.696600 0.000000
        CHANNELS 3 Yrotation Xrotation Zrotation
        JOINT LeftWrist
        {
         OFFSET 0.000000 -24.004700 0.000000
         CHANNELS 3 Yrotation Xrotation Zrotation
         End Site
         {
          OFFSET 0.000000 -17.728500 0.000000
         }
        }
       }
      }
     }
    }
   }
  }
 }
 JOINT RightHip
 {
  OFFSET -7.771700 -0.012900 -0.001300
  CHANNELS 3 Yrotation Xrotation Zrotation
  JOINT RightKnee
  {
   OFFSET 0.000000 -40.869800 0.001200
   CHANNELS 3 Yrotation Xrotation Zrotation
   JOINT RightAnkle
   {
    OFFSET 0.000000 -39.717900 0.002100
    CHANNELS 3 Yrotation Xrotation Zrotation
    JOINT RightToe
    {
     OFFSET 0.000000 -4.965400 11.033500
     CHANNELS 3 Yrotation Xrotation Zrotation
     End Site
     {
      OFFSET 0.000000 -1.423100 5.872300
     }
    }
   }
  }
 }
 JOINT LeftHip
 {
  OFFSET 7.771700 -0.012900 -0.001300
  CHANNELS 3 Yrotation Xrotation Zrotation
  JOINT LeftKnee
  {
   OFFSET 0.000000 -40.869800 0.001200
   CHANNELS 3 Yrotation Xrotation Zrotation
   JOINT LeftAnkle
   {
    OFFSET 0.000000 -39.717900 0.002100
    CHANNELS 3 Yrotation Xrotation Zrotation
    JOINT LeftToe
    {
     OFFSET 0.000000 -4.965400 11.033500
     CHANNELS 3 Yrotation Xrotation Zrotation
     End Site
     {
      OFFSET 0.000000 -1.423100 5.872300
     }
    }
   }
  }
 }
}
MOTION
Frames: 14
Frame Time: 0.008333
0.000000 85.388000 0.000000 0.000000 -5.767877 0.000000 0.000000 11.653817 0.000000 0.000000 -5.885947 0.000000 0.000000 -0.000000 0.000000 0.000000 -0.000000 0.000000 0.000000 12.528835 0.000000 0.000000 0.711642 0.000000 0.000000 -0.000000 0.000000 0.000000 0.000000 -90.000000 0.000000 -2.309062 0.000000 0.000000 2.309062 0.000000 0.000000 -0.000000 0.000000 0.000000 -0.000000 90.000000 0.000000 -2.309062 0.000000 0.000000 2.309062 0.000000 0.000000 8.520406 0.000000 0.000000 1.905762 0.000000 -0.000000 -4.658285 0.000000 0.000000 -0.000000 0.000000 0.000000 8.520406 0.000000 0.000000 1.905762 0.000000 -0.000000 -4.658285 0.000000 0.000000 -0.000000 0.000000
-40.006935 57.900877 12.114044 177.145602 -47.459872 -3.052806 3.488109 21.722674 3.051925 1.798561 12.428338 1.553332 2.316223 15.526985 2.016409 1.794559 12.472370 1.543387 -0.485895 16.659200 1.173167 -1.365362 -4.757069 2.325145 2.155120 2.097690 0.050611 -1.224797 -18.584575 -6.020369 -28.940163 -11.610904 81.324852 -7.992268 0.958961 -28.889129 -11.946723 -1.338826 0.637311 1.127964 -14.701585 7.775006 26.882044 -21.073789 -73.352469 15.310525 -5.565428 19.718752 3.352119 -24.240325 -3.170844 -35.146497 73.710041 -39.062053 6.403069 -14.965892 11.414974 0.002003 -0.062214 0.007801 -6.879044 -21.298022 5.561597 87.342541 81.267033 87.933144 1.431268 -21.918479 -19.030638 -0.005642 0.010870 -0.000254
-40.007714 57.898575 12.113619 177.146963 -47.420421 -3.047902 3.480551 21.675612 3.051269 1.797619 12.400463 1.559885 2.314340 15.497433 2.021020 1.794947 12.427003 1.552174 -0.604060 16.783108 1.120235 -1.511184 -4.566523 2.274977 2.121520 2.196804 0.068018 -1.193726 -18.631285 -6.045021 -28.920071 -11.581790 81.302375 -7.998053 0.979063 -28.938756 -11.947467 -1.232822 0.600042 1.127341 -14.693111 7.759746 26.870289 -21.060994 -73.340730 15.309179 -5.573986 19.710964 3.357311 -24.279642 -3.173719 -35.173536 73.716911 -39.096280 6.395209 -14.971709 11.421394 0.010673 -0.060216 0.010175 -6.877360 -21.338429 5.558146 87.375682 81.270011 87.972740 1.432492 -21.922761 -19.035043 -0.003245 0.009731 0.001853
-40.007240 57.899208 12.110014 177.142804 -47.403671 -3.044192 3.479799 21.643133 3.060356 1.795889 12.387130 1.559811 2.312460 15.456524 2.029296 1.794911 12.380715 1.560956 -0.719413 16.922190 1.063590 -1.696546 -4.347843 2.215108 2.087675 2.306879 0.080340 -1.160903 -18.633440 -6.076846 -28.916265 -11.590577 81.313821 -7.999749 1.002606 -28.984670 -11.947480 -1.123226 0.561479 1.135404 -14.690817 7.743556 26.846381 -21.046633 -73.323034 15.328073 -5.583019 19.696117 3.363219 -24.297442 -3.169037 -35.197376 73.717582 -39.120965 6.387109 -14.965919 11.421043 0.013131 -0.057353 0.011134 -6.871494 -21.354454 5.558465 87.379952 81.270813 87.980895 1.430854 -21.919646 -19.035927 -0.003649 0.004908 0.002770
-40.006774 57.898452 12.107095 177.142377 -47.376255 -3.042049 3.475234 21.592825 3.070961 1.793303 12.400393 1.548886 2.311570 15.392870 2.043922 1.791980 12.356580 1.564297 -0.845791 17.055056 1.003374 -1.906531 -4.099416 2.144177 2.068621 2.402426 0.081230 -1.153912 -18.680995 -6.078929 -28.893386 -11.558737 81.285713 -7.983621 1.020735 -29.027115 -11.931254 -1.042096 0.540046 1.128838 -14.687561 7.723747 26.826824 -21.022563 -73.304853 15.345758 -5.591382 19.681139 3.367093 -24.327441 -3.166168 -35.223090 73.719319 -39.146626 6.373756 -14.959854 11.421728 0.024947 -0.062162 0.013902 -6.862218 -21.382514 5.557554 87.383134 81.272743 87.993472 1.427267 -21.919814 -19.033155 -0.003799 0.004254 0.001193
-40.006545 57.897613 12.103657 177.141248 -47.350764 -3.036687 3.471379 21.557432 3.070465 1.790530 12.367973 1.558300 2.307055 15.357859 2.044805 1.788661 12.332514 1.566923 -0.985977 17.205405 0.935021 -2.138813 -3.818407 2.062159 2.050688 2.501428 0.085547 -1.173556 -18.793300 -6.055636 -28.829816 -11.504182 81.233072 -7.941967 1.066287 -29.122878 -11.887603 -0.981207 0.545461 1.097997 -14.667455 7.682445 26.814972 -20.990871 -73.289875 15.354880 -5.597777 19.672651 3.373692 -24.356301 -3.166929 -35.242036 73.731636 -39.169605 6.356136 -14.963809 11.427416 0.008856 -0.059594 0.011202 -6.835804 -21.409903 5.551099 87.378466 81.273525 88.013438 1.420397 -21.924115 -19.033310 -0.003654 0.007603 0.001542
-40.007353 57.895803 12.100481 177.143722 -47.321122 -3.027118 3.462538 21.517390 3.062553 1.786094 12.291150 1.574957 2.298921 15.362513 2.037319 1.784950 12.307954 1.569208 -1.137673 17.374897 0.859417 -2.389392 -3.501721 1.969652 2.015047 2.597808 0.112562 -1.162728 -18.876074 -6.062774 -28.781668 -11.487895 81.205435 -7.948828 1.105066 -29.187820 -11.869124 -0.892937 0.536240 1.084690 -14.676117 7.662587 26.808240 -20.942919 -73.265281 15.379574 -5.608044 19.636274 3.380953 -24.388572 -3.176939 -35.263209 73.744922 -39.198426 6.357966 -14.969008 11.431446 0.009401 -0.060771 0.011969 -6.829611 -21.440508 5.541069 87.421604 81.280711 88.061477 1.420045 -21.930426 -19.028466 -0.000548 0.005909 -0.000490
-40.007626 57.895523 12.095437 177.147142 -47.308439 -3.020558 3.449290 21.444231 3.068651 1.781244 12.283358 1.571418 2.294241 15.345671 2.037573 1.781297 12.283297 1.571405 -1.299114 17.563458 0.779294 -2.655866 -3.149477 1.871157 1.942617 2.649758 0.176138 -1.100392 -18.895828 -6.115471 -28.743246 -11.462520 81.174760 -7.937278 1.144606 -29.223793 -11.861084 -0.793000 0.515499 1.074087 -14.700085 7.660781 26.806758 -20.886851 -73.249653 15.377684 -5.618224 19.612951 3.386100 -24.403525 -3.182349 -35.281263 73.758310 -39.223210 6.342473 -14.963343 11.431035 0.016525 -0.068826 0.018266 -6.823072 -21.452952 5.531084 87.427333 81.282884 88.071254 1.419016 -21.933405 -19.025307 -0.001548 0.006725 -0.001098
-40.009176 57.893512 12.091386 177.117986 -47.287906 -2.982737 3.458170 21.392036 3.058794 1.778149 12.259472 1.573427 2.290265 15.315770 2.039794 1.778260 12.259389 1.573407 -1.468108 17.771847 0.699914 -2.935855 -2.760223 1.775493 1.893629 2.728386 0.194677 -1.082693 -18.940362 -6.115336 -28.703895 -11.424307 81.132657 -7.932119 1.171023 -29.236582 -11.838337 -0.696764 0.535903 1.058725 -14.706879 7.612689 26.806741 -20.841862 -73.232951 15.362181 -5.625105 19.591360 3.414222 -24.424243 -3.199158 -35.289018 73.763250 -39.233774 6.334273 -14.939263 11.430819 0.034367 -0.082095 0.017482 -6.786457 -21.474399 5.513995 87.413769 81.287596 88.066571 1.421241 -21.946513 -19.023882 -0.000794 0.018453 -0.000294
-40.008128 57.892033 12.086766 177.114254 -47.274485 -2.979170 3.455142 21.348070 3.065112 1.776029 12.235924 1.575005 2.287487 15.286329 2.041490 1.776141 12.235868 1.574968 -1.642669 18.001651 0.626301 -3.227303 -2.330800 1.690953 1.838852 2.817912 0.201577 -1.065482 -18.990553 -6.097080 -28.668435 -11.384770 81.088667 -7.919967 1.198112 -29.242967 -11.811951 -0.599487 0.567456 1.039426 -14.718358 7.558090 26.808713 -20.796206 -73.215703 15.345619 -5.630634 19.570213 3.417935 -24.438484 -3.200105 -35.291607 73.768770 -39.240948 6.359739 -14.942042 11.428857 0.011407 -0.085638 0.015665 -6.769850 -21.490137 5.510264 87.446886 81.292463 88.114537 1.422459 -21.949645 -19.023625 0.000781 0.015202 -0.000384
-40.007647 57.891648 12.080762 177.137671 -47.272968 -2.991968 3.430911 21.319815 3.066587 1.775042 12.212675 1.575833 2.286144 15.257235 2.042383 1.775127 12.212634 1.575816 -1.821492 18.252868 0.561571 -3.528830 -1.861250 1.622701 1.795213 2.917931 0.200101 -1.060877 -19.044577 -6.062192 -28.639853 -11.349545 81.045289 -7.888004 1.228431 -29.245161 -11.787734 -0.504474 0.591596 1.013420 -14.749240 7.534894 26.818947 -20.715531 -73.198854 15.314727 -5.631146 19.538391 3.409779 -24.444488 -3.200846 -35.352658 73.783233 -39.309276 6.347567 -14.965438 11.438933 0.012080 -0.073583 0.016371 -6.778497 -21.492048 5.503355 87.458182 81.292844 88.130682 1.420673 -21.940798 -19.020613 -0.000049 0.004757 -0.002005
-40.006941 57.889594 12.076163 177.126351 -47.261853 -2.981181 3.431544 21.288257 3.067194 1.772597 12.184134 1.576495 2.285335 15.229459 2.041568 1.775835 12.213665 1.576257 -2.003296 18.500962 0.507762 -3.837580 -1.353872 1.573477 1.738353 3.006515 0.188018 -1.027282 -19.082917 -6.032122 -28.633201 -11.332711 81.026175 -7.880682 1.243362 -29.251003 -11.763632 -0.435733 0.619447 0.982979 -14.774144 7.520784 26.833240 -20.666697 -73.204812 15.306434 -5.627667 19.521073 3.433111 -24.453793 -3.207186 -35.379090 73.782308 -39.324144 6.346089 -14.962646 11.438344 0.004338 -0.071195 0.015169 -6.744788 -21.506015 5.493780 87.484729 81.299131 88.185255 1.416714 -21.948312 -19.023143 0.000616 0.004365 -0.000455
-40.006576 57.887352 12.071681 177.114987 -47.251179 -2.968354 3.435225 21.270609 3.063039 1.768335 12.155525 1.577582 2.286412 15.227614 2.039987 1.770833 12.157819 1.571751 -2.184122 18.789230 0.465668 -4.148303 -0.814606 1.543876 1.688616 3.116247 0.178278 -0.994311 -19.121929 -5.996922 -28.617090 -11.320460 81.003378 -7.878537 1.248111 -29.253188 -11.748099 -0.345309 0.624576 0.968198 -14.818509 7.560542 26.845314 -20.599109 -73.236457 15.308161 -5.624309 19.515729 3.449074 -24.464491 -3.213293 -35.415947 73.784211 -39.358067 6.351625 -14.967561 11.440427 -0.004588 -0.065399 0.011974 -6.722243 -21.518279 5.488951 87.507433 81.307114 88.220994 1.420104 -21.954073 -19.025459 0.001774 0.004302 0.001606
-40.006578 57.885702 12.066768 177.108786 -47.246234 -2.956809 3.425527 21.241354 3.056684 1.774034 12.169236 1.573460 2.284450 15.203182 2.038910 1.759527 12.083044 1.560881 -2.361277 19.112650 0.435565 -4.456206 -0.252776 1.534137 1.687008 3.231383 0.185603 -1.015846 -19.156204 -5.942872 -28.593371 -11.310823 80.966502 -7.870100 1.264507 -29.270841 -11.726801 -0.234740 0.629993 0.967867 -14.834315 7.565684 26.844692 -20.579828 -73.257408 15.313283 -5.620038 19.515073 3.459434 -24.469917 -3.219800 -35.467475 73.792585 -39.420074 6.361962 -14.981535 11.453246 -0.003424 -0.060990 0.008084 -6.701736 -21.524647 5.480158 87.578493 81.310654 88.305350 1.419457 -21.969015 -19.030658 0.003042 0.006014 0.004744
